<?xml version="1.0" encoding="UTF-8"?>
<svg width="752pt" height="752pt" version="1.1" viewBox="0 0 752 752" xmlns="http://www.w3.org/2000/svg">
 <defs>
  <clipPath id="a">
   <path d="m235 139.21h282v473.58h-282z"/>
  </clipPath>
 </defs>
 <g clip-path="url(#a)">
  <path d="m342.7 416.38v22.516c0.003906 3.2734 1.0977 6.4531 3.1094 9.0352 2.0078 2.5859 4.8203 4.4297 7.9883 5.2422v137.42c0 7.9297 4.2344 15.258 11.102 19.223 6.8672 3.9688 15.332 3.9688 22.199 0 6.8672-3.9648 11.098-11.293 11.098-19.223v-137.42c3.1719-0.8125 5.9844-2.6562 7.9922-5.2422 2.0078-2.582 3.1016-5.7617 3.1094-9.0352v-22.516c44.93-10.953 81.602-43.305 98.074-86.516 16.473-43.215 10.641-91.766-15.598-129.85-26.238-38.082-69.527-60.828-115.78-60.828-46.246 0-89.535 22.746-115.77 60.828-26.238 38.082-32.07 86.633-15.598 129.85 16.473 43.211 53.145 75.562 98.074 86.516zm40.699 174.21c0 4.0859-3.3125 7.3984-7.4023 7.3984-4.0859 0-7.3984-3.3125-7.3984-7.3984v-136.89h14.801zm-7.4023-436.58c33.363 0 65.359 13.254 88.953 36.844 23.59 23.59 36.844 55.586 36.844 88.949 0 33.363-13.254 65.359-36.844 88.949-23.594 23.594-55.59 36.848-88.953 36.848s-65.359-13.254-88.949-36.848c-23.59-23.59-36.844-55.586-36.844-88.949 0-33.363 13.254-65.359 36.844-88.949 23.59-23.59 55.586-36.844 88.949-36.844z"/>
 </g>
 <path d="m376 390.8c29.438 0 57.672-11.695 78.488-32.512 20.816-20.812 32.508-49.047 32.508-78.484s-11.691-57.668-32.508-78.484c-20.816-20.816-49.051-32.512-78.488-32.512s-57.668 11.695-78.484 32.512c-20.816 20.816-32.508 49.047-32.508 78.484 0.03125 29.43 11.734 57.641 32.543 78.449 20.809 20.809 49.023 32.512 78.449 32.547zm-81.395-111c0.023437-21.578 8.6055-42.27 23.867-57.527 15.258-15.262 35.949-23.844 57.527-23.867 4.0898 0 7.4023 3.3125 7.4023 7.3984 0 4.0859-3.3125 7.3984-7.4023 7.3984-17.656 0.019531-34.582 7.043-47.066 19.527-12.488 12.488-19.508 29.414-19.531 47.07 0 4.0859-3.3125 7.3984-7.3984 7.3984-4.0859 0-7.3984-3.3125-7.3984-7.3984z"/>
</svg>
